<mxfile host="app.diagrams.net" modified="2024-05-16T10:37:04.416Z" agent="Mozilla/5.0 (Windows NT 10.0; Win64; x64) AppleWebKit/537.36 (KHTML, like Gecko) Chrome/124.0.0.0 Safari/537.36" etag="F_ikv30fIvVX1ZT6j0dU" version="24.3.1" type="google">
  <diagram name="Page-1" id="3AW651xyoHBq1aIa7Rv6">
    <mxGraphModel grid="1" page="1" gridSize="10" guides="1" tooltips="1" connect="1" arrows="1" fold="1" pageScale="1" pageWidth="827" pageHeight="1169" math="0" shadow="0">
      <root>
        <mxCell id="0" />
        <mxCell id="1" parent="0" />
        <mxCell id="raqO8b-Yunnj6KW7OPB1-3" value="" style="rounded=0;whiteSpace=wrap;html=1;" vertex="1" parent="1">
          <mxGeometry x="-410" y="110" width="250" height="280" as="geometry" />
        </mxCell>
        <mxCell id="raqO8b-Yunnj6KW7OPB1-4" value="Bartender" style="shape=umlActor;verticalLabelPosition=bottom;verticalAlign=top;html=1;outlineConnect=0;" vertex="1" parent="1">
          <mxGeometry x="-480" y="210" width="30" height="60" as="geometry" />
        </mxCell>
        <mxCell id="raqO8b-Yunnj6KW7OPB1-6" value="prepares MOBS terminal for payment" style="ellipse;whiteSpace=wrap;html=1;" vertex="1" parent="1">
          <mxGeometry x="-380" y="150" width="110" height="60" as="geometry" />
        </mxCell>
        <mxCell id="raqO8b-Yunnj6KW7OPB1-26" value="Customer" style="shape=umlActor;verticalLabelPosition=bottom;verticalAlign=top;html=1;outlineConnect=0;" vertex="1" parent="1">
          <mxGeometry x="-110" y="210" width="30" height="60" as="geometry" />
        </mxCell>
        <mxCell id="raqO8b-Yunnj6KW7OPB1-27" value="wants to pay" style="ellipse;whiteSpace=wrap;html=1;" vertex="1" parent="1">
          <mxGeometry x="-240" y="228.75" width="70" height="52.5" as="geometry" />
        </mxCell>
        <mxCell id="ASka_iZ9NODoOGZ5oFb_-1" value="orders are printed out" style="ellipse;whiteSpace=wrap;html=1;" vertex="1" parent="1">
          <mxGeometry x="-380" y="225" width="110" height="60" as="geometry" />
        </mxCell>
        <mxCell id="ASka_iZ9NODoOGZ5oFb_-2" value="all transactions and cash is kept in a cash drawer" style="ellipse;whiteSpace=wrap;html=1;" vertex="1" parent="1">
          <mxGeometry x="-385" y="300" width="120" height="70" as="geometry" />
        </mxCell>
        <mxCell id="ASka_iZ9NODoOGZ5oFb_-3" value="" style="endArrow=none;html=1;rounded=0;entryX=0.5;entryY=0.5;entryDx=0;entryDy=0;entryPerimeter=0;" edge="1" parent="1" source="raqO8b-Yunnj6KW7OPB1-27" target="raqO8b-Yunnj6KW7OPB1-26">
          <mxGeometry width="50" height="50" relative="1" as="geometry">
            <mxPoint x="-310" y="360" as="sourcePoint" />
            <mxPoint x="-260" y="310" as="targetPoint" />
          </mxGeometry>
        </mxCell>
        <mxCell id="ASka_iZ9NODoOGZ5oFb_-4" value="" style="endArrow=none;html=1;rounded=0;entryX=0;entryY=0.5;entryDx=0;entryDy=0;" edge="1" parent="1" target="raqO8b-Yunnj6KW7OPB1-6">
          <mxGeometry width="50" height="50" relative="1" as="geometry">
            <mxPoint x="-456" y="240" as="sourcePoint" />
            <mxPoint x="-370" y="254" as="targetPoint" />
          </mxGeometry>
        </mxCell>
        <mxCell id="ASka_iZ9NODoOGZ5oFb_-5" value="" style="endArrow=none;html=1;rounded=0;entryX=0;entryY=0.5;entryDx=0;entryDy=0;" edge="1" parent="1" target="ASka_iZ9NODoOGZ5oFb_-1">
          <mxGeometry width="50" height="50" relative="1" as="geometry">
            <mxPoint x="-456" y="240" as="sourcePoint" />
            <mxPoint x="-370" y="254" as="targetPoint" />
          </mxGeometry>
        </mxCell>
        <mxCell id="ASka_iZ9NODoOGZ5oFb_-6" value="" style="endArrow=none;html=1;rounded=0;entryX=0;entryY=0.5;entryDx=0;entryDy=0;" edge="1" parent="1" target="ASka_iZ9NODoOGZ5oFb_-2">
          <mxGeometry width="50" height="50" relative="1" as="geometry">
            <mxPoint x="-456" y="240" as="sourcePoint" />
            <mxPoint x="-370" y="254" as="targetPoint" />
          </mxGeometry>
        </mxCell>
        <mxCell id="kvswaTUCaONPKX0Zh_34-1" value="Bar" style="text;html=1;align=center;verticalAlign=middle;whiteSpace=wrap;rounded=0;" vertex="1" parent="1">
          <mxGeometry x="-315" y="110" width="60" height="30" as="geometry" />
        </mxCell>
      </root>
    </mxGraphModel>
  </diagram>
</mxfile>
